<?xml version="1.0" encoding="utf-8"?>
<!-- Generator: Adobe Illustrator 22.1.0, SVG Export Plug-In . SVG Version: 6.00 Build 0)  -->
<svg version="1.1" id="Layer_1" xmlns="http://www.w3.org/2000/svg" xmlns:xlink="http://www.w3.org/1999/xlink" x="0px" y="0px"
	 viewBox="0 0 100 100" style="enable-background:new 0 0 100 100;" xml:space="preserve">
<style type="text/css">
	.st0{fill:#EEEFEA;}
	.st1{fill:#DAAF52;}
</style>
<path class="st0" d="M95.7,50c0,12.7-5.1,24.1-13.4,32.4C74,90.7,62.5,95.8,49.9,95.8c-12.6,0-24.1-5.1-32.4-13.4
	C9.2,74.1,4,62.7,4,50c0-12.6,5.1-24.1,13.4-32.4C25.8,9.3,37.2,4.2,49.9,4.2c12.7,0,24.1,5.1,32.4,13.4
	C90.6,25.9,95.7,37.4,95.7,50 M99.9,50c0-13.8-5.6-26.3-14.6-35.4C76.2,5.6,63.7,0,49.9,0C36.1,0,23.6,5.6,14.5,14.6
	C5.5,23.7-0.1,36.2-0.1,50c0,13.8,5.6,26.3,14.6,35.4c9.1,9,21.6,14.6,35.4,14.6c13.8,0,26.3-5.6,35.4-14.6
	C94.3,76.3,99.9,63.8,99.9,50"/>
<polygon class="st1" points="37.4,36.4 37.4,40.8 41.8,40.8 41.8,59.5 46.8,59.5 46.8,36.4 "/>
<path class="st0" d="M22.1,43.3L25,50h-5.8L22.1,43.3z M19.6,36.4l-10,23.1h5.5l2.1-5h9.7l2.1,5h5.5l-10-23.1H19.6z"/>
<polygon class="st0" points="83.5,36.4 78.5,45 73.5,36.4 67.9,36.4 75.9,50.4 75.9,59.5 81.1,59.5 81.1,50.4 89.1,36.4 "/>
<polygon class="st1" points="53.4,36.4 53.4,40.8 57.8,40.8 57.8,59.5 62.7,59.5 62.7,36.4 "/>
</svg>
