<svg id="Capa_1" enable-background="new 0 0 512 512" height="512" viewBox="0 0 512 512" width="512" xmlns="http://www.w3.org/2000/svg"><g><path d="m437.02 74.98c-48.351-48.352-112.639-74.98-181.02-74.98-68.379 0-132.667 26.628-181.019 74.979-48.352 48.353-74.981 112.64-74.981 181.021 0 68.379 26.628 132.666 74.98 181.019 48.353 48.352 112.64 74.981 181.02 74.981s132.667-26.629 181.02-74.981c48.351-48.353 74.98-112.64 74.98-181.019 0-68.381-26.628-132.669-74.98-181.02zm-181.02 407.02c-124.617 0-226-101.383-226-226s101.383-226 226-226 226 101.383 226 226-101.383 226-226 226z"/><path d="m256 176.733c-43.708 0-79.267 35.559-79.267 79.267s35.559 79.267 79.267 79.267 79.267-35.559 79.267-79.267-35.559-79.267-79.267-79.267zm0 128.534c-27.166 0-49.267-22.101-49.267-49.267s22.101-49.267 49.267-49.267 49.267 22.101 49.267 49.267-22.101 49.267-49.267 49.267z"/><path d="m288.13 110.33c3.95 0 7.82-1.601 10.61-4.391s4.39-6.659 4.39-10.609c0-3.94-1.6-7.811-4.39-10.601-2.801-2.8-6.66-4.399-10.61-4.399-3.94 0-7.811 1.6-10.6 4.399-2.801 2.79-4.4 6.66-4.4 10.601 0 3.95 1.6 7.819 4.4 10.609 2.789 2.79 6.659 4.391 10.6 4.391z"/><path d="m190.67 95.33c0-3.95-1.6-7.811-4.4-10.601-2.79-2.8-6.65-4.399-10.6-4.399s-7.82 1.6-10.61 4.399c-2.79 2.79-4.39 6.65-4.39 10.601 0 3.95 1.6 7.819 4.39 10.609s6.66 4.391 10.61 4.391 7.81-1.601 10.6-4.391c2.8-2.79 4.4-6.659 4.4-10.609z"/><path d="m368.47 158.53c3.94 0 7.811-1.601 10.6-4.391 2.801-2.79 4.4-6.66 4.4-10.609 0-3.941-1.6-7.811-4.4-10.601-2.789-2.8-6.659-4.399-10.6-4.399-3.95 0-7.82 1.6-10.61 4.399-2.79 2.79-4.39 6.65-4.39 10.601 0 3.949 1.6 7.819 4.39 10.609 2.789 2.791 6.66 4.391 10.61 4.391z"/><path d="m223.87 153.71c3.95 0 7.81-1.601 10.6-4.391 2.8-2.789 4.4-6.659 4.4-10.609s-1.6-7.811-4.4-10.601c-2.79-2.8-6.65-4.399-10.6-4.399s-7.82 1.6-10.61 4.399c-2.79 2.79-4.39 6.65-4.39 10.601 0 3.95 1.6 7.82 4.39 10.609 2.79 2.79 6.66 4.391 10.61 4.391z"/><path d="m95.33 144.6c-3.95 0-7.81 1.601-10.6 4.391s-4.4 6.659-4.4 10.609 1.61 7.811 4.4 10.61c2.79 2.79 6.65 4.39 10.6 4.39s7.82-1.6 10.61-4.39c2.79-2.8 4.39-6.66 4.39-10.61s-1.6-7.81-4.39-10.609c-2.79-2.791-6.66-4.391-10.61-4.391z"/><path d="m416.67 238.859c3.94 0 7.81-1.6 10.6-4.39 2.8-2.79 4.4-6.66 4.4-10.6 0-3.95-1.601-7.82-4.4-10.61-2.79-2.79-6.66-4.39-10.6-4.39-3.95 0-7.82 1.6-10.61 4.39s-4.39 6.66-4.39 10.61c0 3.939 1.6 7.81 4.39 10.6 2.79 2.791 6.66 4.39 10.61 4.39z"/><path d="m146.11 242.51c2.79-2.8 4.39-6.66 4.39-10.61 0-3.949-1.6-7.81-4.39-10.609-2.8-2.79-6.66-4.391-10.61-4.391s-7.81 1.601-10.61 4.391c-2.79 2.79-4.39 6.66-4.39 10.609 0 3.95 1.6 7.811 4.39 10.61 2.8 2.79 6.66 4.39 10.61 4.39 3.95-.001 7.81-1.6 10.61-4.39z"/><path d="m93.73 290.81c-3.95 0-7.82 1.601-10.61 4.391s-4.39 6.659-4.39 10.609c0 3.94 1.6 7.81 4.39 10.601 2.79 2.8 6.66 4.399 10.61 4.399 3.94 0 7.81-1.6 10.6-4.399 2.8-2.79 4.4-6.66 4.4-10.601 0-3.95-1.6-7.819-4.4-10.609-2.79-2.791-6.66-4.391-10.6-4.391z"/><path d="m376.5 273.13c-3.95 0-7.82 1.6-10.61 4.4-2.79 2.789-4.39 6.659-4.39 10.6 0 3.95 1.6 7.82 4.39 10.61s6.66 4.39 10.61 4.39 7.81-1.6 10.609-4.39c2.79-2.801 4.391-6.66 4.391-10.61 0-3.94-1.601-7.811-4.391-10.6-2.799-2.801-6.659-4.4-10.609-4.4z"/><path d="m416.67 337.399c-3.95 0-7.82 1.601-10.61 4.391s-4.39 6.66-4.39 10.609c0 3.95 1.6 7.811 4.39 10.61 2.79 2.79 6.66 4.39 10.61 4.39 3.94 0 7.81-1.6 10.6-4.39 2.8-2.8 4.4-6.66 4.4-10.61 0-3.949-1.601-7.81-4.4-10.609-2.791-2.79-6.65-4.391-10.6-4.391z"/><path d="m288.13 361.5c-3.95 0-7.811 1.6-10.6 4.39-2.801 2.79-4.4 6.66-4.4 10.61s1.6 7.81 4.4 10.609c2.789 2.79 6.659 4.391 10.6 4.391 3.95 0 7.82-1.601 10.61-4.391 2.79-2.8 4.39-6.659 4.39-10.609s-1.6-7.82-4.39-10.61-6.66-4.39-10.61-4.39z"/><path d="m143.53 345.43c-3.94 0-7.81 1.6-10.6 4.4-2.8 2.79-4.4 6.649-4.4 10.6 0 3.95 1.6 7.82 4.4 10.61 2.79 2.79 6.66 4.39 10.6 4.39 3.95 0 7.82-1.6 10.61-4.39s4.39-6.66 4.39-10.61-1.6-7.81-4.39-10.6c-2.79-2.801-6.66-4.4-10.61-4.4z"/><path d="m207.8 409.7c-3.95 0-7.81 1.6-10.61 4.39-2.79 2.79-4.39 6.66-4.39 10.61 0 3.949 1.6 7.819 4.39 10.6 2.8 2.8 6.66 4.4 10.61 4.4s7.81-1.601 10.61-4.4c2.79-2.78 4.39-6.65 4.39-10.6s-1.6-7.82-4.39-10.61c-2.8-2.79-6.66-4.39-10.61-4.39z"/><path d="m352.399 401.67c-3.949 0-7.81 1.6-10.609 4.39-2.79 2.79-4.391 6.66-4.391 10.61s1.601 7.81 4.391 10.6c2.8 2.79 6.66 4.4 10.609 4.4 3.95 0 7.811-1.61 10.61-4.4 2.79-2.79 4.39-6.649 4.39-10.6s-1.6-7.82-4.39-10.61c-2.799-2.79-6.659-4.39-10.61-4.39z"/></g></svg>